<?xml version="1.0" encoding="UTF-8"?>
<svg id="Capa_1" data-name="Capa 1" xmlns="http://www.w3.org/2000/svg" xmlns:xlink="http://www.w3.org/1999/xlink" viewBox="0 0 349.05 198.43">
  <defs>
    <style>
      .cls-1 {
        fill: url(#linear-gradient);
      }

      .cls-2, .cls-3 {
        fill: #fff;
      }

      .cls-4 {
        fill: #22357f;
      }

      .cls-5 {
        fill: url(#linear-gradient-3);
      }

      .cls-6 {
        fill: url(#linear-gradient-4);
      }

      .cls-7 {
        fill: url(#linear-gradient-2);
      }

      .cls-8 {
        fill: url(#linear-gradient-6);
      }

      .cls-9 {
        fill: url(#linear-gradient-5);
      }

      .cls-10 {
        fill: none;
        filter: url(#drop-shadow-1);
      }

      .cls-3 {
        fill-rule: evenodd;
      }
    </style>
    <filter id="drop-shadow-1" filterUnits="userSpaceOnUse">
      <feOffset dx="0" dy="2.83"/>
      <feGaussianBlur result="blur" stdDeviation="2.83"/>
      <feFlood flood-color="#3b1817" flood-opacity=".75"/>
      <feComposite in2="blur" operator="in"/>
      <feComposite in="SourceGraphic"/>
    </filter>
    <linearGradient id="linear-gradient" x1="61" y1="22.64" x2="74.48" y2="107.78" gradientUnits="userSpaceOnUse">
      <stop offset="0" stop-color="#fff"/>
      <stop offset=".34" stop-color="#faf2ef"/>
      <stop offset="1" stop-color="#f0d3c7"/>
      <stop offset="1" stop-color="#f0d3c7"/>
    </linearGradient>
    <linearGradient id="linear-gradient-2" x1="103.95" y1="15.84" x2="117.42" y2="100.99" xlink:href="#linear-gradient"/>
    <linearGradient id="linear-gradient-3" x1="151.04" y1="8.39" x2="164.52" y2="93.53" xlink:href="#linear-gradient"/>
    <linearGradient id="linear-gradient-4" x1="196.23" y1="1.24" x2="209.71" y2="86.38" xlink:href="#linear-gradient"/>
    <linearGradient id="linear-gradient-5" x1="239.31" y1="-5.58" x2="252.79" y2="79.56" xlink:href="#linear-gradient"/>
    <linearGradient id="linear-gradient-6" x1="284.86" y1="-12.79" x2="298.34" y2="72.35" xlink:href="#linear-gradient"/>
  </defs>
  <g class="cls-10">
    <path class="cls-1" d="m39.88,12.2h15.27l10.11,36.92,10.11-36.92h15.27v74.71h-13.62v-35.6l-6.26,26.59h-10.88l-6.37-26.92v35.93h-13.62V12.2Z"/>
    <path class="cls-7" d="m108.44,12.64h13.84l14.17,74.27h-13.29l-1.87-9.01h-12.2l-1.54,9.01h-13.62l14.5-74.27Zm6.81,32.41l-3.63,19.45h7.25l-3.63-19.45Z"/>
    <path class="cls-5" d="m139.75,12.31l19.23-.11c2.64.15,5.13.72,7.47,1.7,2.34.99,4.39,2.34,6.15,4.07,1.76,1.72,3.13,3.77,4.12,6.15.99,2.38,1.48,5,1.48,7.86v5.38c0,3.96-.7,7.11-2.09,9.45-1.39,2.34-3.11,4.1-5.16,5.27l9.89,34.83h-13.95l-8.79-30.32h-4.72v30.32h-13.62V12.31Zm13.62,14.06v16.59h5.6c1.54,0,2.86-.55,3.96-1.65,1.1-1.1,1.65-2.42,1.65-3.96v-5.38c0-1.54-.55-2.86-1.65-3.96-1.1-1.1-2.42-1.65-3.96-1.65h-5.6Z"/>
    <path class="cls-6" d="m184.14,12.75h13.62v23.84l10.77-23.95h15.16l-16.04,35.16,17.8,39.11h-15.16l-10.11-22.52-2.42,5.38v17.14h-13.62V12.75Z"/>
    <path class="cls-9" d="m228.74,12.75h38.67v13.62h-25.05v16.59h21.86v13.62h-21.86v16.7h25.05v13.62h-38.67V12.75Z"/>
    <path class="cls-8" d="m270.71,12.2h38.45v14.17h-12.42v60.54h-13.62V26.37h-12.42v-14.17Z"/>
  </g>
  <g>
    <path class="cls-2" d="m289.21,119.08l-21.32-32.58c-1.41-2.16-3.63-3.49-6.11-3.49s-4.69,1.33-6.1,3.49l-5.87,8.97c-.83-.01-2.38-.04-4.58-.04-21.77,0-107.1,1.87-181.37,29.53l-.17.06-.17.06-.17.06-.17.06-.17.06v.36s0,.18,0,.18v.36l.11,58.21v1.1s0,.37,0,.37v.37s.35-.13.35-.13l.35-.13.34-.13.35-.13.34-.13c73.14-27.38,154.41-29.63,179.11-29.63,3.44,0,5.75.04,6.82.07,2.83,4.32,4.88,7.45,4.88,7.45,1.41,2.16,3.62,3.49,6.1,3.49s4.69-1.33,6.11-3.49l21.32-32.58c2.22-3.39,2.21-8.42,0-11.81Z"/>
    <path class="cls-4" d="m234.56,130.84c-1.19-1.81-1.65-3.95-1.65-5.85s.46-4.04,1.65-5.85l12.52-19.14c-88.93.32-154.32,19.1-179.48,28.39l.1,51.35c25.25-9.34,90.83-28.47,180.4-28.21l-13.53-20.69Z"/>
    <path class="cls-2" d="m122.15,151.59l-4.23.93c-.21-.01-5.22-.18-5.24-8.08,0-4.53-.02-12.38,0-16.29,0-1.87-1.05-2.98-1.05-2.98l6.61-1.52.03,19.3c0,7.16,3.88,8.65,3.88,8.65"/>
    <path class="cls-2" d="m130.26,145.56c-.24.95-.71,1.51-1.42,1.68-.76.17-1.24-.16-1.44-.95-.22-.81-.68-2.88-.67-6.22-.02-3.42.44-5.58.64-6.5.19-.91.67-1.45,1.45-1.63.79-.17,1.28.13,1.47.92.2.79.47,2.91.48,6.34.01,3.28-.28,5.41-.5,6.37m4.32-15.65c-1.19-1.52-3.15-1.95-5.88-1.31-2.56.61-4.49,1.96-5.72,4.03-1.23,2.07-1.83,4.98-1.83,8.73s.64,6.26,1.9,7.8c1.28,1.55,3.16,2,5.68,1.42,2.57-.6,4.5-1.94,5.76-3.99,1.25-2.05,1.86-4.99,1.86-8.82s-.6-6.35-1.76-7.87Z"/>
    <path class="cls-2" d="m104.47,151.45c-.23.95-.7,1.52-1.42,1.68-.75.16-1.23-.16-1.44-.97-.22-.8-.68-2.86-.67-6.21-.02-3.43.43-5.59.64-6.5.2-.92.68-1.45,1.45-1.63.8-.17,1.29.13,1.48.92.19.8.47,2.91.48,6.34.01,3.28-.28,5.4-.5,6.37m4.31-15.64c-1.18-1.52-3.14-1.96-5.88-1.32-2.56.61-4.49,1.96-5.72,4.03-1.23,2.07-1.84,4.98-1.84,8.73,0,3.65.65,6.25,1.91,7.8,1.27,1.55,3.17,2,5.68,1.42,2.58-.61,4.5-1.94,5.75-3.99,1.26-2.05,1.86-5,1.86-8.82s-.58-6.34-1.76-7.86Z"/>
    <path class="cls-2" d="m153.99,128.19v17.56s-5.59.89-5.59.89l-.02-16.08c0-.39-.07-1.1-.66-1.4-.62-.31-1.99-.1-2.92.43v17.64s-5.59.98-5.59.98c0,0,0-9.94,0-13.11,0-6.63-3.18-7.66-3.18-7.66l7.63-1.37.5,1.1c1.48-1.21,3.74-2.06,6.01-2.06,1.68,0,2.49.91,2.76,1.25,1.87-2.25,5.7-3.38,8.28-2.1,1.63.79,1.89,2.47,1.89,3.65,0,0,0,7.54.02,11.18,0,4.55,1.45,5.08,1.45,5.08l-7.05,1.03v-16.1c-.01-.81-.45-1.28-.93-1.46-.48-.17-1.7-.07-2.62.56"/>
    <path class="cls-2" d="m198.25,120.05l-.4-.95-4.51.48.03,21.36,5.59-.46-.03-17.93c1.44-.58,2.53-.51,3.06-.23.35.18.72.6.72,1.45l.04,16.4,7.26-.47s-1.71-1.15-1.72-4.77c.02-1.61,0-11.85,0-11.85,0-2.51-1.25-4.06-3.25-4.46-1.99-.41-4.49-.04-6.79,1.44"/>
    <path class="cls-2" d="m189.94,141.26l-5.58.55s-.03-14.78-.02-15.72c0-4.52-1.7-5.43-1.7-5.43l7.26-.74"/>
    <path class="cls-2" d="m190.89,112.62c-2.53,2.2-3.84,5.37-3.84,5.37,0,0-1.21-3.18-3.85-4.72,2.71-2.36,3.8-5.16,3.8-5.16,0,0,1.34,2.85,3.89,4.51"/>
    <path class="cls-2" d="m181.26,130.42c.02,4.22-.15,7.24-2.09,9.98-2.17,2.85-7.28,3.78-10.11,2.8-2.77-.83-2.62-3.52-2.73-4.67,0,0,.09-17.83.09-19.51,0-2.41-1.46-3.71-1.46-3.71l6.98-.9v8.32c.39-.36,4.3-3.1,7.35-.99,1.67,1.15,1.96,3.27,1.96,8.66m-5.98-4.95c-1.38-1.14-3.39.46-3.4.48-.02.02,0,13.81,0,13.81,1.25.42,2.51-.03,3.13-.93,1.11-1.8,1.19-4.02,1.19-7.22,0-4.17-.21-5.55-.91-6.13Z"/>
    <path class="cls-2" d="m227.48,134.05v-12.23c0-3.66,0-5.18,0-5.18,0,0-1.11.92-2.34,1.23-1.61.4-1.97-.6-4.56-.5-6.62.26-9.3,6.08-9.3,12.79,0,3.08.97,5.65,2.36,7.36,1.23,1.53,5.25,3.79,8.4-.68.07.88.18,1.67.41,2.19l6.8-.24s-1.83-1.22-1.77-4.76m-8.6.95c-1.19-.28-1.94-2.92-1.94-6.37s1.26-6.72,2.69-7.58c.83-.51,2.06-.17,2.34.2v5.09c0,.84.03,5.62.03,7.41-.66.78-1.71,1.57-3.12,1.25Z"/>
    <path class="cls-2" d="m94.91,156.79s-.9-2.08-1.08-3.99c-1.52,1.57-2.54,2.47-4.4,2.82-3.34.61-4.3-2.57-4.65-4.8-.18-1.21-.18-.49-.32-5.14-.13-4.02.52-6.7.52-6.7,0,0,.46-3.12,2.72-4.32,3.38-1.81,7.16,2.4,7.16,2.4-.14-.12-.02-5.32-.02-5.32,0,0-3.36-2.39-7.02-1.95-8.58,1.01-10.82,9.87-10.82,17.25,0,5.08,1.45,9.12,3.32,11.3,1.75,2.04,8.58,4.93,14.59-1.56"/>
    <path class="cls-4" d="m285.37,121.52c1.26,1.9,1.26,5.03,0,6.93l-21.31,32.58c-1.25,1.91-3.29,1.91-4.54,0l-21.31-32.58c-1.25-1.9-1.25-5.03,0-6.93l21.31-32.58c1.24-1.91,3.29-1.91,4.54,0l21.31,32.58Z"/>
    <path class="cls-2" d="m265.51,125.35c-.43-.35-1.32-1.1-1.91-1.78l-.04-.05-.04-.04c-.62-.55-1.45-1.78-1.99-2.6-.15-.23-.28-.4-.37-.55-.14-.2.03-.32.09-.36.24-.18.45-.45.48-.84v-.08c0-.38-.18-.69-.44-.95.19-.06.46-.11.64-.26.42-.34.43-.81.47-1.07.04-.27.13-.5.22-.55.23-.12.54-.23.64-.45.18-.4-.12-.71-.38-1.18-.05-.08-.12-.38-.12-.38.62-.27,1.28-.8,1.28-1.59,0-.34,0-2.07-1.98-2.73-.64-.22-1.21-.47-1.6-.68,2.61-2.45,6.27-3.97,10.18-3.97.23,0,.45,0,.67.01-2.45-1.09-5.1-1.76-7.95-1.76-10.75,0-19.47,8.55-19.47,19.1,0,9.53,7.11,17.42,16.43,18.86,0,0-.26.43-.26.96,0,.79.42,1.42.68,1.89.16.28.2.52.19.87-.04.69.3,1.33.3,1.33.2.41.33.78.54,1.07.33.53.94.75,1.46.6.47-.14.78-.55.78-1.08v-.02c0-.39.04-2.46.63-3.7.19-.39.54-1.04,1-1.83,7.13-.81,13.09-5.39,15.73-11.67-2.7,2.75-6.5,4.47-10.71,4.47-.2,0-.34,0-.53-.01,1.33-2.64-.14-3.78-.47-3.9,2.34-5.33-3.45-5.13-4.13-5.1"/>
    <path class="cls-4" d="m268.32,130.95c1.81.59,1.39,2.37.64,3.43-.74,1.06-4.44,7.13-5.23,8.74-.66,1.39-.71,3.58-.72,4.1.01.3-.33.29-.51,0-.19-.27-.31-.62-.47-.98-.42-.67.01-1.37-.55-2.3-.06-.11-.16-.27-.24-.4-.61-1.06-.03-1.74.33-1.75.36,0,.8-.16.9-.26,1.19-1.02,1.94-5.12,1.94-5.12-.99.46-2.67,4.63-2.67,4.63-.52.36-.58-.99-.73-1.6-.14-.62.4-1.08.32-1.8,0-.37-.13-1.13-.11-1.66,0-.52.32-.5.49-.52.17-.03.85.1,1,.13.33,0,.38-.27.38-.27.25-.8,1.09-1.86,1.09-1.86-.58-.3-1.69-.03-1.69-.03-8.69,4.68-12.72-5.51-12.72-5.51,1.19.27,2.05.42,3.55,0,1.47-.42,2.59-1.67,2.59-1.67-.25-1.66-.86-4.27-.6-5.52.01-1.04.83-2.02,1.16-2.72.23-.46-.03-.78-.03-.78-.05-.07-.06-.13-.04-.21.01-.09.06-.21.1-.3.05-.13.09-.18.17-.14.02,0,.28.11.28.11.23-.56-.26-1.13-.74-1.71-.47-.57-.71-2.18-.71-2.18-.5.1-.57-.24-.57-.24-.39.58.05,1.87.18,2.47.04.18.09.44.09.7,0,.79-.61,1.43-1.36,1.43s-1.35-.64-1.35-1.43c0-.09,0-.17,0-.25.25.33.63.47.94.34.26-.12.41-.39.41-.71,0-.61-.12-1.49-.2-2.3-.1-1.21,1.25-1.02,1.25-1.02.14-.65,1.27-.55,1.27-.55.58-.74,1.34-1.37,2.41-1.47,1.04-.13,1.8.52,1.8.52,2.82.4,2.83,1.87,2.8,2.48-.03.6-.8.79-.8.79-.22.32-.55.35-.55.35,0,0,.06.48.08.53.01.04.04.21.08.28.08.15.35.53.39.57.07.08.04.25-.12.29-.13.04-.17.06-.21.07-.04,0-.11.04-.09.14.02.11.02.17.03.19,0,.03.02.07-.07.08-.11,0-.35.03-.35.03,0,0,.19.18.21.21.03.04.07.04.01.08-.05.03-.12.1-.16.25-.04.2-.01.44-.21.6-.33.26-1.01.04-1.7-.02-.5-.05-.15.67-.15.67.19.11,1.08.55,1.12,1.2.03.49-.4.34-.63.86-.11.24-.09.51,0,.67.26.39,1.71,2.72,2.79,3.69.87,1,2.3,2.11,2.3,2.11,4.53-.23,4.02,2.07,3.83,2.84-.19.75-.66,1.71-.66,1.71m-5.03-4.06c-.24-.27-.85-.89-1.22-1.2-.49-.41-1.22-1.16-1.22-1.16,0,0-.2,1.32-.68,1.79,0,0,.45,1.16.42,1.67,0,0,.36-.3,1.65-.73.58-.22,1.13-.28,1.05-.36Z"/>
    <path class="cls-3" d="m76.1,173c2.26,0,4.05-1.77,4.05-3.95s-1.8-3.96-4.05-3.96-4.02,1.77-4.02,3.96,1.82,3.95,4.02,3.95m0-9.01c2.87,0,5.17,2.26,5.17,5.06s-2.3,5.06-5.17,5.06-5.13-2.27-5.13-5.06,2.31-5.06,5.13-5.06Z"/>
    <path class="cls-3" d="m75.89,168.3h.1c.24,0,.48,0,.65-.07.08-.03.13-.06.16-.1.03-.04.05-.09.05-.19,0-.19-.07-.26-.18-.31-.14-.06-.36-.08-.62-.08h-.14s-.07,0-.11,0h-.16v.74m3.01,3.16l.07.15.07.15.03.07h-1.75v-.03s-.04-.06-.04-.06l-.03-.06-.92-2h-.44v2.15h-1.63v-5.67h2.45c1.44,0,2.05.98,2.05,1.78,0,.58-.34,1.11-.86,1.4l.99,2.12Z"/>
  </g>
</svg>